:SAMPLES-PER-SECOND 30
:FULLY-SPECIFIED
:DEGREES
463
root  0.0992648 29.7459 -35.8469 22.687 1.4092 -4.92747
RightUpLeg  -18.9889 -28.5139 -0.718153
RightLeg  48.9901 -7.10545 -7.16525
RightFoot  -1.51946 -0.000163399 0.365395
RightToes  -67.9322 -0.470589 -0.413412
Spine  6.03366 -2.70132 0.340326
Spine1  11.6954 -5.07802 -0.0620989
HEad  4.6685 46.5824 -26.53
LeftShoulder1  0 -2.42657e-020 -4.95415e-022
LeftArm  -4.75196 25.1523 -90.2654
LeftForeArm  22.6486 -71.1961 -31.373
LeftHand  -0.0428984 0.329898 -14.8775
RightShoulder  0 2.42657e-020 1.07489e-018
RightArm  33.9513 -11.0566 55.5334
RightForeArm  148.032 79.9187 93.5499
RightHand  -7.25564 14.2345 -53.4918
LeftUpLeg  -68.8744 35.9445 -14.85
LeftLeg  73.16 8.6199 21.8045
LeftFoot  -8.88035 -0.291636 -3.7544
LeftToes  -18.1761 2.34596e-006 -6.06653e-008
464
root  -0.354155 29.9387 -35.5144 25.3135 11.8035 -6.18655
RightUpLeg  -28.4718 -27.9564 5.94242
RightLeg  60.8037 -7.23769 -11.1099
RightFoot  10.8243 0.275603 -2.53067
RightToes  -60.2541 -0.396946 -0.398867
Spine  5.12605 -2.81366 1.004
Spine1  10.011 -5.51509 1.49608
HEad  3.21684 44.7228 -25.4443
LeftShoulder1  0 -2.42657e-020 -4.95415e-022
LeftArm  -2.77597 27.4242 -90.721
LeftForeArm  27.7809 -73.3143 -36.2864
LeftHand  -0.0149085 0.098931 -16.3746
RightShoulder  0 2.42657e-020 1.07489e-018
RightArm  36.0537 -15.951 50.7845
RightForeArm  173.766 78.7599 116.677
RightHand  -7.31187 13.4311 -56.6249
LeftUpLeg  -67.0501 30.4691 -12.4214
LeftLeg  66.9116 8.18604 15.7483
LeftFoot  -14.8782 -0.611068 -4.67741
LeftToes  -18.6978 2.34596e-006 -6.06653e-008
465
root  -0.954161 30.0039 -34.919 25.4137 21.5571 -6.92551
RightUpLeg  -36.085 -23.4402 10.2006
RightLeg  71.137 -4.47805 -10.821
RightFoot  17.4011 0.611007 -3.61341
RightToes  -43.6922 -0.248629 -0.335015
Spine  5.446 -2.74511 1.38528
Spine1  10.6731 -5.50172 2.38999
HEad  0.142667 41.8231 -24.1207
LeftShoulder1  0 -2.42657e-020 -4.95415e-022
LeftArm  -1.88661 27.4137 -90.6029
LeftForeArm  32.3822 -74.8081 -40.816
LeftHand  0.0356104 -0.240458 -17.723
RightShoulder  0 2.42657e-020 1.07489e-018
RightArm  37.3972 -18.699 47.7454
RightForeArm  -171.64 77.1118 129.066
RightHand  -7.47093 12.8485 -59.8693
LeftUpLeg  -65.3473 25.9879 -9.02356
LeftLeg  62.7451 7.02547 11.5226
LeftFoot  -17.8524 -0.661317 -4.20864
LeftToes  -15.0082 2.34596e-006 -6.06653e-008
466
root  -1.31314 30.045 -33.9927 23.9795 30.5869 -5.20052
RightUpLeg  -40.0473 -18.7042 9.17663
RightLeg  77.3821 -1.69642 -6.0721
RightFoot  11.339 0.167336 -1.30781
RightToes  -43.0188 -0.243036 -0.331532
Spine  6.69209 -3.16662 1.19032
Spine1  13.1344 -6.36709 1.98264
HEad  -3.1223 40.0894 -23.7848
LeftShoulder1  0 -2.42657e-020 -4.95415e-022
LeftArm  -1.3049 25.6272 -89.7365
LeftForeArm  31.3616 -74.5797 -40.046
LeftHand  0.104602 -0.653029 -18.7669
RightShoulder  0 2.42657e-020 1.07489e-018
RightArm  37.4674 -19.1223 47.801
RightForeArm  -166.263 76.7619 131.007
RightHand  -7.77845 12.7068 -62.4702
LeftUpLeg  -62.244 20.4353 -5.95696
LeftLeg  61.8373 5.70272 9.07837
LeftFoot  -15.6032 -0.400828 -2.92489
LeftToes  -17.7681 2.34596e-006 -6.06653e-008
467
root  -1.43662 30.0702 -32.7831 20.715 40.8374 -6.22344
RightUpLeg  -42.3288 -17.1788 8.72616
RightLeg  78.7699 -1.05894 -4.30247
RightFoot  6.00091 0.0479932 -0.537994
RightToes  -42.1269 -0.235693 -0.326819
Spine  8.02864 -3.91062 2.14472
Spine1  15.6381 -8.00094 3.79031
HEad  -4.80603 39.8581 -23.2316
LeftShoulder1  0 -2.42657e-020 -4.95415e-022
LeftArm  -1.29524 23.2663 -90.9701
LeftForeArm  25.9213 -72.6421 -34.5684
LeftHand  0.0664093 -0.415657 -18.8347
RightShoulder  0 2.42657e-020 1.07489e-018
RightArm  36.8431 -17.5919 47.6258
RightForeArm  -168.13 77.7057 125.572
RightHand  -8.08316 12.8157 -64.007
LeftUpLeg  -58.963 15.6256 -1.1471
LeftLeg  60.9493 3.45457 5.3446
LeftFoot  -15.063 -0.224759 -1.69988
LeftToes  -21.1869 2.34596e-006 -6.06653e-008
468
root  -1.22277 30.2933 -30.9049 5.42567 52.0088 -17.6408
RightUpLeg  -36.4506 -19.4145 11.6961
RightLeg  71.9338 -2.35101 -6.06047
RightFoot  1.37788 0.00756787 -0.251671
RightToes  -39.4156 -0.213832 -0.311797
Spine  10.5042 -4.97795 5.27889
Spine1  20.0612 -10.584 9.53127
HEad  -4.45812 40.4665 -21.8484
LeftShoulder1  0 -2.42657e-020 -4.95415e-022
LeftArm  -3.25794 19.4165 -95.9376
LeftForeArm  19.0475 -67.2093 -24.9327
LeftHand  0.282985 -1.77615 -18.5451
RightShoulder  0 2.42657e-020 1.07489e-018
RightArm  34.6843 -13.5084 45.7844
RightForeArm  177.542 79.4496 108.235
RightHand  -8.18211 12.8681 -64.4255
LeftUpLeg  -52.8929 12.4358 10.2557
LeftLeg  61.8738 -0.0909033 -0.157862
LeftFoot  -15.3738 -0.0113483 -0.0840876
LeftToes  -25.7965 2.34596e-006 -6.06653e-008
469
root  -1.02179 30.5214 -29.2039 -12.0209 57.1631 -30.515
RightUpLeg  -31.1526 -18.3561 11.6451
RightLeg  63.5218 -4.97079 -8.58361
RightFoot  -2.90503 0.000965916 0.415742
RightToes  -34.9864 -0.179722 -0.285086
Spine  12.7231 -5.24109 7.55719
Spine1  24.0192 -11.5899 13.5613
HEad  -4.37402 40.6055 -21.734
LeftShoulder1  0 -2.42657e-020 -4.95415e-022
LeftArm  -3.81007 15.7376 -98.3992
LeftForeArm  12.4244 -63.4221 -20.7074
LeftHand  0.37398 -2.39781 -18.149
RightShoulder  0 2.42657e-020 1.07489e-018
RightArm  31.6575 -10.2518 44.8504
RightForeArm  164.597 79.9564 93.9574
RightHand  -8.09521 12.5282 -65.273
LeftUpLeg  -46.9693 10.7274 19.6257
LeftLeg  62.1847 -2.96937 -4.84385
LeftFoot  -15.2344 0.165011 1.23382
LeftToes  -31.3177 2.34596e-006 -6.06653e-008
